<svg width="43" height="43" viewBox="0 0 43 43" fill="none" xmlns="http://www.w3.org/2000/svg">
<path d="M34.3097 0H8.68491C3.88562 0 0 3.88562 0 8.68491V34.3151C0 39.109 3.88562 42.9946 8.68491 42.9946H34.3151C39.109 42.9946 43 39.109 43 34.3097V8.68491C42.9946 3.88562 39.109 0 34.3097 0Z" fill="url(#paint0_linear_0_54)"/>
<path d="M21.314 9.8778L22.1847 8.37296C22.7221 7.43242 23.9205 7.11538 24.8611 7.6528C25.8016 8.19021 26.1187 9.38867 25.5812 10.3292L17.1919 24.8507H23.2595C25.2265 24.8507 26.3282 27.1617 25.4737 28.7632H7.68476C6.59918 28.7632 5.72852 27.8925 5.72852 26.8069C5.72852 25.7214 6.59918 24.8507 7.68476 24.8507H12.6722L19.0569 13.7849L17.063 10.3238C16.5256 9.3833 16.8427 8.19559 17.7832 7.64742C18.7238 7.11001 19.9115 7.42705 20.4596 8.36759L21.314 9.8778Z" fill="white"/>
<path d="M13.7692 30.7786L11.8882 34.0408C11.3508 34.9814 10.1524 35.2984 9.21183 34.761C8.27129 34.2236 7.95425 33.0251 8.49166 32.0846L9.88899 29.6662C11.469 29.1771 12.7534 29.5533 13.7692 30.7786Z" fill="white"/>
<path d="M29.9664 24.8615H35.0559C36.1415 24.8615 37.0121 25.7321 37.0121 26.8177C37.0121 27.9033 36.1415 28.7739 35.0559 28.7739H32.229L34.1368 32.0845C34.6743 33.0251 34.3572 34.2128 33.4167 34.7609C32.4761 35.2984 31.2884 34.9813 30.7403 34.0408C27.5264 28.4676 25.1133 24.2972 23.5118 21.5186C21.8726 18.6917 23.0443 15.854 24.1997 14.8921C25.4843 17.0956 27.4029 20.4223 29.9664 24.8615Z" fill="white"/>
<defs>
<linearGradient id="paint0_linear_0_54" x1="21.5" y1="0" x2="21.5" y2="42.9946" gradientUnits="userSpaceOnUse">
<stop stop-color="#00BFFC"/>
<stop offset="1" stop-color="#0073F6"/>
</linearGradient>
</defs>
</svg>
