<svg width="20" height="20" viewBox="0 0 20 20" fill="none" xmlns="http://www.w3.org/2000/svg">
<path d="M8.85681 10.3145L10.7192 8.45206C10.3004 8.18472 9.80376 8.02905 9.27111 8.02905C7.78247 8.02905 6.57138 9.24015 6.57138 10.7288C6.57138 12.2174 7.78247 13.4285 9.27111 13.4285C10.7597 13.4285 11.9708 12.2174 11.9708 10.7288C11.9708 10.1962 11.8152 9.69948 11.5478 9.28065L9.6854 11.1431L8.85681 10.3145Z" fill="#F72A75"/>
<path d="M18.5423 10.7289C18.5423 9.13663 18.1355 7.57952 17.3632 6.20151L15.0547 6.51784C15.918 7.7003 16.4284 9.15601 16.4284 10.7289C16.4284 14.6755 13.2177 17.8862 9.27109 17.8862C5.32449 17.8862 2.11379 14.6755 2.11379 10.7289C2.11379 6.78233 5.32457 3.57159 9.27113 3.57159C10.844 3.57159 12.2997 4.08198 13.4822 4.9453L13.7985 2.63679C12.4205 1.86452 10.8634 1.45776 9.27113 1.45776C6.79473 1.45776 4.46652 2.42214 2.71547 4.17323C0.964375 5.92429 0 8.25249 0 10.7289C0 13.2053 0.964375 15.5335 2.71547 17.2846C4.46652 19.0357 6.79469 20 9.27113 20C11.7476 20 14.0757 19.0357 15.8268 17.2846C17.5779 15.5335 18.5423 13.2053 18.5423 10.7289Z" fill="#F72A75"/>
<path d="M9.27114 4.74341C5.97075 4.74341 3.28568 7.42845 3.28568 10.7289C3.28568 14.0293 5.97071 16.7143 9.27114 16.7143C12.5716 16.7143 15.2566 14.0293 15.2566 10.7289C15.2566 9.28923 14.7456 7.96677 13.8956 6.93306L12.3904 8.43825C12.8631 9.08013 13.1428 9.87239 13.1428 10.7289C13.1428 12.8637 11.406 14.6005 9.27118 14.6005C7.13638 14.6005 5.39958 12.8637 5.39958 10.7289C5.39958 8.59407 7.13638 6.85728 9.27118 6.85728C10.1277 6.85728 10.9199 7.137 11.5618 7.60966L13.067 6.10446C12.0333 5.25438 10.7108 4.74341 9.27114 4.74341Z" fill="#F72A75"/>
<path d="M17.5903 0L14.986 2.60434L14.6033 5.39691L17.3959 5.01422L20.0002 2.40988L18.2423 1.75789L17.5903 0Z" fill="#F72A75"/>
</svg>
