<svg width="19" height="22" viewBox="0 0 19 22" fill="none" xmlns="http://www.w3.org/2000/svg">
<path d="M17.9881 17.9694C17.9881 17.9694 15.6408 13.9352 15.2198 13.2116C15.6988 13.0655 16.2091 12.9364 16.4212 12.5703C16.7745 11.9603 16.1455 10.9595 16.3107 10.3056C16.4808 9.63266 17.4852 9.05034 17.4852 8.36628C17.4852 7.69982 16.4468 6.92123 16.2766 6.2522C16.1102 5.59844 16.7374 4.59661 16.3829 3.98731C16.0283 3.37794 14.8475 3.42801 14.3614 2.96027C13.8613 2.47894 13.8628 1.30125 13.2596 0.97868C12.6539 0.654911 11.6695 1.30925 10.997 1.15425C10.3321 1.00103 9.73814 0 9.04368 0C8.33893 0 7.21799 1.13551 7.04219 1.17637C6.37002 1.33263 5.38437 0.679887 4.77929 1.00503C4.17662 1.32868 4.18034 2.50648 3.68111 2.98862C3.19583 3.45722 2.01494 3.40932 1.66151 4.01937C1.30813 4.6293 1.93716 5.62981 1.77204 6.28404C1.60647 6.93992 0.567094 7.60449 0.567094 8.36302C0.567094 9.04714 1.57401 9.62764 1.74518 10.3003C1.91155 10.954 1.28442 11.9557 1.63893 12.5653C1.83194 12.897 2.26984 13.0332 2.70717 13.1642C2.75821 13.1794 2.85474 13.2365 2.78936 13.3318C2.49016 13.8482 0.0820401 18.0043 0.0820401 18.0043C-0.109535 18.3349 0.0460339 18.6182 0.427642 18.6343L2.29556 18.7122C2.67717 18.7283 3.15588 19.0056 3.35957 19.3287L4.35631 20.9103C4.56 21.2334 4.8832 21.2273 5.07472 20.8968C5.07472 20.8968 7.86359 16.0819 7.86473 16.0806C7.92069 16.0152 7.97692 16.0286 8.00384 16.0515C8.30898 16.3113 8.73437 16.5705 9.0894 16.5705C9.43757 16.5705 9.75997 16.3265 10.0789 16.0544C10.1048 16.0323 10.168 15.9869 10.2142 16.081C10.2149 16.0825 13.0007 20.871 13.0007 20.871C13.1927 21.2011 13.516 21.2067 13.719 20.8833L14.713 19.2997C14.9161 18.9764 15.3943 18.698 15.7759 18.6814L17.6437 18.6C18.0251 18.5833 18.1801 18.2995 17.9881 17.9694ZM12.1307 13.6384C10.0654 14.8399 7.5864 14.7111 5.69294 13.5168C2.91846 11.7397 2.00557 8.06337 3.67345 5.18465C5.36036 2.27273 9.06859 1.24524 12.0068 2.84545C12.0222 2.85386 12.0374 2.86254 12.0528 2.87112C12.0745 2.88318 12.0963 2.89541 12.1179 2.90775C13.0244 3.43035 13.8104 4.18883 14.3732 5.15625C16.0934 8.11309 15.0874 11.9182 12.1307 13.6384Z" fill="#10D0A1"/>
<path d="M11.6585 3.77797C11.65 3.773 11.6413 3.76837 11.6327 3.76346C10.0632 2.85507 8.06271 2.78866 6.38614 3.76409C3.89818 5.21153 3.05158 8.41316 4.49902 10.9011C4.9407 11.6603 5.54594 12.2663 6.24423 12.7013C6.30361 12.7389 6.36368 12.7758 6.42506 12.8114C8.91571 14.2543 12.1156 13.402 13.5585 10.9114C15.0013 8.42076 14.1492 5.2209 11.6585 3.77797ZM12.2816 7.84958L11.4095 8.69961C11.1394 8.96285 10.9706 9.48249 11.0344 9.85426L11.2403 11.0545C11.3041 11.4263 11.0831 11.5868 10.7492 11.4113L9.67127 10.8446C9.33739 10.6691 8.79106 10.6691 8.45718 10.8446L7.37928 11.4113C7.0454 11.5868 6.82439 11.4263 6.88817 11.0545L7.09403 9.85426C7.15782 9.48249 6.98899 8.96285 6.71888 8.69961L5.84685 7.84958C5.57669 7.58633 5.66116 7.32652 6.03443 7.27222L7.23954 7.09711C7.61281 7.04287 8.05483 6.72173 8.22177 6.3835L8.76072 5.29149C8.92766 4.95326 9.20085 4.95326 9.36773 5.29149L9.90674 6.3835C10.0737 6.72173 10.5156 7.04287 10.889 7.09711L12.0941 7.27222C12.4673 7.32652 12.5517 7.58633 12.2816 7.84958Z" fill="#10D0A1"/>
</svg>
