<svg width="30" height="31" viewBox="0 0 30 31" fill="none" xmlns="http://www.w3.org/2000/svg">
<path d="M9.39925 19.3732C9.5394 19.4716 9.69789 19.5187 9.85469 19.5187C10.1192 19.5187 10.379 19.3845 10.5372 19.1364C11.8627 17.0573 14.0785 15.816 16.4644 15.816C18.8433 15.816 21.0554 17.0516 22.3818 19.1212C22.6348 19.5158 23.1445 19.6205 23.5204 19.355C23.8963 19.0895 23.996 18.5545 23.7431 18.1599C22.6833 16.5064 21.1638 15.2864 19.4274 14.6337C20.4688 13.7408 21.1348 12.3831 21.1348 10.865C21.1348 8.18239 19.0556 6 16.5 6C13.9444 6 11.8652 8.18239 11.8652 10.865C11.8652 12.3722 12.5216 13.7214 13.55 14.6145C11.7865 15.2648 10.2442 16.4996 9.17371 18.1787C8.92175 18.5739 9.02273 19.1087 9.39925 19.3732ZM16.5 7.72211C18.151 7.72211 19.4941 9.13201 19.4941 10.865C19.4941 12.5979 18.151 14.0078 16.5 14.0078C14.849 14.0078 13.5059 12.5979 13.5059 10.865C13.5059 9.13201 14.849 7.72211 16.5 7.72211ZM19.7713 21.2463L18.5484 22.1723C18.3665 22.3101 18.2903 22.5543 18.3598 22.7773L18.8523 24.2756C18.8731 24.3423 18.8811 24.4075 18.8784 24.4697C18.861 24.8721 18.3805 25.1474 18.0281 24.8805L16.8052 23.9542C16.7142 23.8854 16.6071 23.8509 16.5 23.8509C16.3929 23.8509 16.2859 23.8854 16.1949 23.9542L14.972 24.8805C14.6196 25.1474 14.1368 24.8721 14.1215 24.4697C14.1192 24.4075 14.1274 24.3423 14.1482 24.2756L14.6402 22.7773C14.7097 22.5543 14.6336 22.3101 14.4516 22.1723L13.2287 21.2463C12.8218 20.9382 13.0309 20.2074 13.5339 20.2074H15.0455C15.2704 20.2074 15.4697 20.1166 15.5392 19.8936L16.0063 18.3856C16.084 18.1364 16.292 18.0117 16.5 18.0117C16.7081 18.0117 16.9161 18.1364 16.9938 18.3856L17.4609 19.8936C17.5304 20.1166 17.7297 20.2074 17.9546 20.2074H19.4662C19.9691 20.2074 20.1782 20.9382 19.7713 21.2463ZM26.785 24.26L25.5621 25.186C25.3801 25.3238 25.304 25.568 25.3735 25.791L25.866 27.2893C25.8868 27.356 25.8948 27.4212 25.8921 27.4834C25.8747 27.8858 25.3942 28.1611 25.0417 27.8942L23.8189 26.9679C23.7279 26.8991 23.6208 26.8646 23.5137 26.8646C23.4066 26.8646 23.2995 26.8991 23.2086 26.9679L21.9857 27.8942C21.6333 28.1611 21.1505 27.8858 21.1352 27.4834C21.1329 27.4212 21.1411 27.356 21.1619 27.2893L21.6539 25.791C21.7234 25.568 21.6473 25.3238 21.4653 25.186L20.2424 24.26C19.8355 23.9519 20.0446 23.2211 20.5475 23.2211H22.0591C22.2841 23.2211 22.4834 23.1303 22.5529 22.9073L23.02 21.3993C23.0977 21.1501 23.3057 21.0254 23.5137 21.0254C23.7217 21.0254 23.9297 21.1501 24.0075 21.3993L24.4745 22.9073C24.5441 23.1303 24.7434 23.2211 24.9683 23.2211H26.4799C26.9828 23.2211 27.1919 23.9519 26.785 24.26ZM12.7577 24.26L11.5347 25.186C11.3528 25.3238 11.2766 25.568 11.3461 25.791L11.8386 27.2893C11.8594 27.356 11.8674 27.4212 11.8647 27.4834C11.8473 27.8858 11.3668 28.1611 11.0144 27.8942L9.79148 26.9679C9.70051 26.8991 9.59342 26.8646 9.48633 26.8646C9.37924 26.8646 9.27214 26.8991 9.18117 26.9679L7.95829 27.8942C7.60588 28.1611 7.12309 27.8858 7.10783 27.4834C7.10549 27.4212 7.1137 27.356 7.13449 27.2893L7.62652 25.791C7.69604 25.568 7.61987 25.3238 7.43793 25.186L6.215 24.26C5.80813 23.9519 6.01723 23.2211 6.52016 23.2211H8.03175C8.25668 23.2211 8.45602 23.1303 8.5255 22.9073L8.99258 21.3993C9.07031 21.1501 9.2783 21.0254 9.48633 21.0254C9.69436 21.0254 9.90235 21.1501 9.98007 21.3993L10.4472 22.9073C10.5167 23.1303 10.716 23.2211 10.9409 23.2211H12.4525C12.9554 23.2211 13.1645 23.9519 12.7577 24.26Z" fill="#0E63FF"/>
<circle cx="16.5" cy="10.5" r="3.5" fill="#0E63FF"/>
</svg>
