<svg width="15" height="20" viewBox="0 0 15 20" fill="none" xmlns="http://www.w3.org/2000/svg">
<path d="M14.0329 4.53121C13.9383 4.44599 13.8172 4.40345 13.67 4.40345H10.9709C10.7918 3.61772 10.4551 2.93567 9.96053 2.35805H13.6383C13.7859 2.35805 13.9066 2.31546 14.0015 2.23043C14.0957 2.14526 14.1431 2.03625 14.1431 1.90371V0.454534C14.1431 0.321895 14.0958 0.213088 14.0015 0.127813C13.9065 0.042737 13.7857 0 13.6382 0H0.505057C0.357659 0 0.236744 0.042737 0.14198 0.127763C0.0474925 0.213038 0 0.321846 0 0.454484V2.34367C0 2.46675 0.0499803 2.57327 0.149941 2.66322C0.249902 2.75318 0.368274 2.79815 0.505057 2.79815H2.79393C5.01424 2.79815 6.42442 3.33303 7.02418 4.4032H0.505057C0.357659 4.4032 0.236578 4.44574 0.14198 4.53096C0.0474925 4.61629 0 4.72505 0 4.85768V6.30666C0 6.4392 0.0472713 6.54816 0.14198 6.63318C0.236744 6.71851 0.35788 6.76095 0.505057 6.76095H7.2455C7.01396 7.53768 6.47456 8.12943 5.62733 8.53664C4.78004 8.94391 3.66217 9.14755 2.273 9.14755H0.505057C0.368274 9.14755 0.249902 9.19258 0.149941 9.28248C0.049925 9.37248 0 9.47905 0 9.60203V11.4062C0 11.5295 0.0472713 11.6336 0.14198 11.7187C2.16237 13.6505 4.7828 16.3539 8.00295 19.8295C8.09777 19.9433 8.22924 20 8.39765 20H11.4756C11.6969 20 11.8496 19.915 11.9335 19.7442C12.0387 19.5738 12.0181 19.4128 11.8703 19.2612C8.79782 15.871 6.38251 13.3331 4.62507 11.6476C6.41408 11.4582 7.86633 10.9373 8.98188 10.0852C10.0973 9.23298 10.7759 8.1248 11.0181 6.7612H13.67C13.8172 6.7612 13.9383 6.71871 14.0329 6.63343C14.1277 6.54841 14.1751 6.43945 14.1751 6.30691V4.85808C14.1751 4.72529 14.1277 4.61649 14.0329 4.53121Z" fill="#FF006E"/>
</svg>
